<svg version="1.0" xmlns="http://www.w3.org/2000/svg"
width="300.000000pt" height="300.000000pt" viewBox="0 0 300.000000 300.000000"
preserveAspectRatio="xMidYMid meet">
<g transform="translate(0.000000,300.000000) scale(0.100000,-0.100000)"
fill="#648a64" stroke="none">
<path d="M1380 2464 c-106 -28 -178 -70 -256 -148 -88 -87 -127 -162 -151
-290 -23 -119 -9 -219 46 -331 70 -141 172 -232 315 -283 98 -35 240 -36 338
-3 383 129 502 604 224 898 -136 145 -335 205 -516 157z m200 -55 c170 -27
323 -157 380 -324 30 -88 28 -233 -5 -320 -30 -82 -70 -140 -135 -198 -97 -87
-207 -123 -353 -114 -75 4 -99 10 -161 40 -125 62 -208 153 -255 280 -26 70
-29 215 -6 290 54 178 206 317 377 346 74 12 85 12 158 0z"/>
<path d="M1424 2335 c-156 -34 -268 -143 -309 -300 -25 -96 -33 -90 113 -87
123 3 129 2 138 -18 8 -18 17 2 57 121 26 79 47 149 47 155 0 5 6 19 14 29 12
17 16 17 30 6 15 -12 17 -41 16 -220 0 -113 0 -213 0 -221 1 -8 20 41 43 110
35 104 45 125 62 125 15 0 24 -13 39 -55 24 -67 25 -69 37 -47 8 14 25 17 108
17 l98 0 -9 51 c-42 230 -264 383 -484 334z m182 -41 c105 -37 186 -105 227
-187 15 -31 27 -70 27 -86 l0 -31 -75 0 c-41 0 -75 4 -75 9 0 5 -12 23 -26 40
-30 36 -63 40 -89 11 -26 -29 -32 -13 -34 93 -1 78 -4 94 -23 114 -12 13 -29
23 -39 23 -28 0 -63 -58 -88 -144 -12 -44 -28 -94 -36 -112 l-13 -33 -97 -3
c-53 -2 -102 0 -107 3 -33 21 46 181 113 231 83 62 166 90 250 83 36 -2 75 -8
85 -11z"/>
<path d="M1459 1990 c-9 -19 -24 -59 -33 -88 -10 -29 -26 -57 -37 -62 -15 -9
-22 -5 -41 26 l-23 36 -102 -5 c-68 -3 -105 -1 -113 7 -21 19 -3 -80 25 -142
51 -112 137 -186 256 -223 142 -44 293 -6 401 102 53 53 103 148 114 217 l7
42 -83 0 c-82 0 -84 -1 -110 -32 -31 -37 -44 -33 -70 26 -11 26 -20 35 -23 26
-2 -8 -11 -37 -20 -65 -50 -163 -75 -220 -96 -223 -11 -2 -22 -2 -23 0 -1 2
-4 91 -7 198 -6 188 -7 194 -22 160z m-143 -151 c30 -34 61 -41 95 -24 l29 16
0 -76 c0 -41 0 -77 0 -80 -1 -16 33 -66 50 -75 41 -22 75 15 111 120 40 118
34 110 67 98 25 -10 33 -8 64 15 26 20 46 27 81 27 41 0 47 -3 47 -22 0 -66
-109 -203 -190 -241 -198 -90 -433 -2 -506 189 -25 65 -17 74 64 74 57 0 72
-4 88 -21z"/>
<path d="M2110 1955 c-26 -32 13 -81 48 -59 34 22 22 74 -18 74 -10 0 -23 -7
-30 -15z"/>
<path d="M532 1218 c2 -19 8 -22 31 -20 l27 3 0 -80 c0 -80 0 -81 26 -81 25 0
25 0 22 78 l-3 77 28 3 c19 2 27 9 27 23 0 17 -8 19 -81 19 -78 0 -80 -1 -77
-22z"/>
<path d="M740 1140 c0 -93 1 -100 20 -100 16 0 20 7 20 35 0 27 4 35 18 35 10
0 26 -15 36 -35 14 -25 26 -35 43 -35 28 0 29 4 2 41 l-20 29 20 26 c27 34 26
50 -4 79 -20 21 -34 25 -80 25 l-55 0 0 -100z m108 33 c3 -20 -1 -23 -32 -23
-32 0 -36 3 -36 26 0 23 3 25 33 22 24 -2 33 -8 35 -25z"/>
<path d="M960 1140 l0 -100 70 0 c67 0 70 1 70 24 0 22 -3 23 -50 18 -49 -4
-50 -4 -50 23 0 26 1 27 40 20 36 -6 40 -5 40 14 0 18 -6 21 -40 21 -33 0 -40
3 -40 20 0 17 7 20 50 20 43 0 50 3 50 20 0 18 -7 20 -70 20 l-70 0 0 -100z"/>
<path d="M1160 1141 c0 -94 1 -101 20 -101 18 0 20 7 20 61 0 33 4 58 9 55 5
-3 25 -31 46 -61 24 -37 43 -55 57 -55 14 0 18 5 14 16 -3 9 -6 54 -6 100 0
79 -1 84 -21 84 -20 0 -21 -4 -16 -55 3 -30 3 -55 -1 -54 -4 0 -25 24 -48 52
-64 83 -74 78 -74 -42z"/>
<path d="M1390 1141 l0 -101 28 0 c118 0 180 87 114 161 -24 27 -37 33 -85 37
l-57 4 0 -101z m105 34 c14 -13 25 -28 25 -33 0 -19 -36 -52 -59 -54 -22 -3
-24 0 -25 55 -2 50 0 57 16 57 11 0 30 -11 43 -25z"/>
<path d="M1614 1140 c0 -89 2 -100 17 -100 13 0 19 9 21 33 2 24 7 31 20 29
32 -5 87 25 93 51 14 53 -29 87 -108 87 l-42 0 -1 -100z m90 54 c9 -3 16 -14
16 -24 0 -19 -19 -30 -51 -30 -14 0 -19 7 -19 30 0 31 17 38 54 24z"/>
<path d="M1810 1165 c0 -67 3 -79 25 -100 31 -31 66 -32 102 -1 25 21 28 31
31 100 4 72 3 76 -17 76 -19 0 -21 -6 -21 -60 0 -47 -4 -64 -20 -80 -16 -16
-25 -18 -40 -10 -17 9 -20 21 -20 80 0 63 -2 70 -20 70 -18 0 -20 -7 -20 -75z"/>
<path d="M2024 1224 c3 -9 6 -54 6 -100 l0 -84 66 0 c62 0 65 1 62 22 -2 15
-10 23 -23 24 -70 3 -65 -3 -65 79 0 74 0 75 -26 75 -20 0 -25 -4 -20 -16z"/>
<path d="M2213 1216 c-27 -24 -27 -26 -13 -52 8 -15 30 -32 49 -39 19 -6 37
-17 39 -23 6 -18 -26 -26 -52 -14 -14 6 -28 7 -37 1 -11 -8 -10 -13 10 -29 32
-27 76 -26 106 5 41 40 28 73 -40 95 -32 11 -44 28 -29 43 3 3 17 1 31 -4 35
-13 64 8 37 28 -28 20 -70 15 -101 -11z"/>
<path d="M2386 1163 c3 -137 -5 -123 69 -120 58 2 65 4 65 23 0 18 -6 20 -47
20 -42 -1 -48 2 -48 19 0 17 6 20 43 17 36 -2 42 0 42 18 0 17 -7 20 -45 20
-38 0 -45 3 -45 20 0 17 7 20 50 20 43 0 50 3 50 20 0 18 -7 20 -68 20 l-68 0
2 -77z"/>
</g>
</svg>
